<?xml version="1.0" encoding="utf-8"?>
<svg xmlns="http://www.w3.org/2000/svg" width="180.14" height="64.41" viewBox="0 0 180.14 64.41"><title>Alibre-Logo-forum</title><path d="M55.4,64.79A151.29,151.29,0,0,0,42.26,52.94,90.84,90.84,0,0,0,19.51,39.19c-.75-.34-1.43-.61-1.43-.61s3.93-6.09,5.35-8.06a45.66,45.66,0,0,1,4.47-5.28c1.83-1.9,2.85-2.57,4-2.57a2.22,2.22,0,0,1,2,.88c.81.74,2.24,2.77,2,2.84a42.28,42.28,0,0,0-3.59,2.31,31.3,31.3,0,0,0-7.25,6.84,9.21,9.21,0,0,0-1.49,2.23c0,.27.34.54,2.3,1.63A204.37,204.37,0,0,1,45.78,51.72c3.59,2.58,4.68,3.19,5.83,3.59a4,4,0,0,0,3.59-.61c1.22-1.22.68-4.67-1.69-11A277,277,0,0,0,40.43,15.83,11.31,11.31,0,0,1,39.55,14c.07-.07,2.31,3.18,4.41,6.36,9.95,15,16.12,28.11,19.16,40.91.34,1.43.68,3.12.68,3.12S62.51,65.07,61,66l-2.77,1.49Z" transform="translate(0 -5.13)" fill="#0b94d9"/><path d="M2.57,65.54.75,63.3,1.9,60.6C8.67,44.88,16.53,30.19,24.25,18.87c2.84-4.19,8.8-12,9.34-12.39s10.77,19.57,14.7,28.18c4.34,9.61,6.64,16.39,6.23,18.55-.13.68-.61.95-1.76.95s-1.9-.47-5.62-3.11l-3-2.1-.4-2.17a108.73,108.73,0,0,0-4.47-16c-3.32-9.08-6.64-11.38-11-7.59-2.64,2.3-5.62,6-9.07,11.31-2.71,4.13-2.85,4.4-2.78,4.68a10.48,10.48,0,0,0,2.3,1.08C28,43.93,37.79,50.3,47.41,59c3.79,3.39,8.67,8.2,8.47,8.26s-7.66-.88-8.74-1.15a5.65,5.65,0,0,1-1.63-1.83A80.33,80.33,0,0,0,35,53.69c-5.83-4.61-11.18-7.66-15-8.47a5,5,0,0,0-3.66.14C15.1,45.83,12.87,48,11.58,50a58.41,58.41,0,0,0-6.5,15.71,9.17,9.17,0,0,1-.61,2,24.56,24.56,0,0,1-1.9-2.24Z" transform="translate(0 -5.13)" fill="#92cbf6"/><path d="M6,67.91a44.25,44.25,0,0,1,1.42-5.49c2.78-8.6,7-15.37,9.89-15.91l.54-.14-1.15,2A26.45,26.45,0,0,0,12.6,62.15v1.63l-2.85,1.9C5.55,68.52,6,68.32,6,67.91Z" transform="translate(0 -5.13)" fill="#0b94d9"/><path d="M33.8,5.13c9.14,16,25.12,47.68,20.65,49.37s-4.6-3-30.2-16.8" transform="translate(0 -5.13)" fill="none"/><path d="M5,69.54c.48-5.35,6.3-22.49,12.4-23.78m-.27-6.84c1.35-2.1,5.14-8.33,8.6-12.19,5-5.62,8.8-9.48,14.36,8.54a91.12,91.12,0,0,1,3.45,14.15" transform="translate(0 -5.13)" fill="none"/><path d="M58,68.32l6.44-3.53" transform="translate(0 -5.13)" fill="none"/><path d="M17.41,45.76c7.45-1,25.12,13.82,28.92,20.93L58,68.32" transform="translate(0 -5.13)" fill="none"/><path d="M58,68.32c-11.92-12.19-24.65-23.44-40.9-29.4" transform="translate(0 -5.13)" fill="none"/><path d="M0,63.3C10.63,38,21.94,19.21,33.8,5.13c14.49,19.3,26.55,38.67,30.68,59.6" transform="translate(0 -5.13)" fill="none"/><path d="M24.18,37.7c3.32-4.81,6.91-7.85,12.33-11" transform="translate(0 -5.13)" fill="none"/><path d="M13.14,64.19c0-5.36.13-10,5.76-18.36" transform="translate(0 -5.13)" fill="none"/><path d="M0,63.3l5,6.17,8.06-5.35" transform="translate(0 -5.13)" fill="none"/><g style="isolation:isolate"><path d="M86.88,42.85a6.78,6.78,0,0,0-1.95-.94,8,8,0,0,0-2.32-.34,7,7,0,0,0-4.81,1.68,5.62,5.62,0,0,0-1.89,4.42,6.9,6.9,0,0,0,1.89,5.15,7.28,7.28,0,0,0,9.72,0,7.1,7.1,0,0,0,1.8-5.15V35.48a7.06,7.06,0,0,0-1.8-5.18,6.56,6.56,0,0,0-4.91-1.83A6.8,6.8,0,0,0,77,31.15l-2-1.16a7.58,7.58,0,0,1,3.2-2.89A9.51,9.51,0,0,1,82.61,26a9.61,9.61,0,0,1,3.63.67,8.45,8.45,0,0,1,2.9,1.92,9.15,9.15,0,0,1,1.92,3,10.42,10.42,0,0,1,.7,3.87V47.67c0,1,0,1.93,0,2.74A10.32,10.32,0,0,0,92,52.52a2.78,2.78,0,0,0,.73,1.37,2.05,2.05,0,0,0,1.44.48v2.44a4.24,4.24,0,0,1-2.93-.88,4.91,4.91,0,0,1-1.4-2.35,9.09,9.09,0,0,1-3.11,2.56,8.91,8.91,0,0,1-4.15,1,9,9,0,0,1-3.53-.7,9.26,9.26,0,0,1-2.9-2,9.4,9.4,0,0,1-2-3,9.87,9.87,0,0,1-.73-3.81,7.78,7.78,0,0,1,.73-3.32,8.9,8.9,0,0,1,2-2.72,9.43,9.43,0,0,1,2.9-1.82,9.2,9.2,0,0,1,3.53-.67,9,9,0,0,1,4.27,1Z" transform="translate(0 -5.13)" fill="#0b94d9"/><path d="M99.07,14.14h2.44V48c0,1.14,0,2.1,0,2.87a8.89,8.89,0,0,0,.25,2,2.72,2.72,0,0,0,.7,1.34,2,2,0,0,0,1.46.49v2.44a4.56,4.56,0,0,1-2.68-.7,4.34,4.34,0,0,1-1.47-1.89,9.72,9.72,0,0,1-.61-2.81q-.12-1.61-.12-3.75Z" transform="translate(0 -5.13)" fill="#0b94d9"/><path d="M110,19.32a1.49,1.49,0,0,1,.43-1.09,1.46,1.46,0,0,1,1.1-.43,1.53,1.53,0,1,1,0,3.05,1.46,1.46,0,0,1-1.1-.43A1.5,1.5,0,0,1,110,19.32Zm.31,37.49V26.33h2.44V56.81Z" transform="translate(0 -5.13)" fill="#0b94d9"/><path d="M125.28,27.37a9,9,0,0,1,4.27-1,9.45,9.45,0,0,1,3.54.67A8.8,8.8,0,0,1,136,28.92a9.4,9.4,0,0,1,2,3,9.85,9.85,0,0,1,.73,3.87V47.67a10.05,10.05,0,0,1-.7,3.81,9.09,9.09,0,0,1-1.92,3,8.67,8.67,0,0,1-2.89,2,9.47,9.47,0,0,1-3.63.7,9.09,9.09,0,0,1-3.54-.7,9.21,9.21,0,0,1-2.89-2,9.4,9.4,0,0,1-2-3,9.69,9.69,0,0,1-.73-3.81V14.14h2.44V47.67a6.9,6.9,0,0,0,1.88,5.15,6.59,6.59,0,0,0,4.82,1.86,6.52,6.52,0,0,0,4.91-1.86,7.1,7.1,0,0,0,1.8-5.15V35.78a6.88,6.88,0,0,0-1.89-5.18,6.65,6.65,0,0,0-4.82-1.83,7.75,7.75,0,0,0-2.32.34,6.78,6.78,0,0,0-2,.94Z" transform="translate(0 -5.13)" fill="#0b94d9"/><path d="M145.09,26.33h2.44v3.11a10.86,10.86,0,0,1,5.24-3.17,8,8,0,0,1,5.73.73v2.87a7.17,7.17,0,0,0-3.56-1.52,6.6,6.6,0,0,0-3.57.48,6.43,6.43,0,0,0-2.74,2.38,7.22,7.22,0,0,0-1.1,4.08V56.81h-2.44Z" transform="translate(0 -5.13)" fill="#0b94d9"/><path d="M166.73,41.57H171a6.65,6.65,0,0,0,4.82-1.83,6.12,6.12,0,0,0,1.89-4.57,6.44,6.44,0,0,0-1.89-5,7,7,0,0,0-4.82-1.7,6.88,6.88,0,0,0-4.91,1.7,6.58,6.58,0,0,0-1.79,5v12.5a7.08,7.08,0,0,0,1.79,5.18A6.58,6.58,0,0,0,171,54.68,6.76,6.76,0,0,0,176.55,52l1.95,1.28a8.7,8.7,0,0,1-3.23,2.8,9.22,9.22,0,0,1-4.27,1,9.84,9.84,0,0,1-3.63-.67,8.39,8.39,0,0,1-4.81-4.88,10.45,10.45,0,0,1-.7-3.9V35.48a10.05,10.05,0,0,1,.7-3.81,8.83,8.83,0,0,1,1.92-3,8.67,8.67,0,0,1,2.89-1.95A9.28,9.28,0,0,1,171,26a8.91,8.91,0,0,1,3.54.7,9.07,9.07,0,0,1,4.87,4.94,9.69,9.69,0,0,1,.73,3.81,7.67,7.67,0,0,1-.73,3.32,8.74,8.74,0,0,1-2,2.71,9.6,9.6,0,0,1-2.89,1.83A9.26,9.26,0,0,1,171,44h-4.27Z" transform="translate(0 -5.13)" fill="#0b94d9"/></g></svg>